# AST/ASF file generated using VICON BodyLanguage
# -----------------------------------------------
:version 1.10
:name VICON
:units
  mass 1.0
  length 0.45
  angle deg
:documentation
   .ast/.asf automatically generated from VICON data using
   VICON BodyBuilder and BodyLanguage model FoxedUp or BRILLIANT.MOD
:root
   order TX TY TZ RX RY RZ
   axis XYZ
   position 0 0 0  
   orientation 0 0 0 
:bonedata
  begin
     id 1 
     name lhipjoint
     direction 0.521689 -0.742065 0.420928 
     length 2.47002 
     axis 0 0 0  XYZ
  end
  begin
     id 2 
     name lfemur
     direction 0.34202 -0.939693 0  
     length 7.24654  
     axis 0 0 20  XYZ
    dof rx ry rz
    limits (-160.0 20.0)
           (-70.0 70.0)
           (-60.0 70.0)
  end
  begin
     id 3 
     name ltibia
     direction 0.34202 -0.939693 0   
     length 8.04849   
     axis 0 0 20   XYZ
    dof rx
    limits (-10.0 170.0)
  end
  begin
     id 4 
     name lfoot
     direction 0.0745411 -0.2048 0.975961   
     length 1.72367   
     axis -90 7.62852e-016 20   XYZ
    dof rx rz
    limits (-45.0 90.0)
           (-70.0 20.0)
  end
  begin
     id 5 
     name ltoes
     direction 1.53556e-011 -4.21901e-011 1   
     length 0.87311   
     axis -90 7.62852e-016 20   XYZ
    dof rx
    limits (-90.0 20.0)
  end
  begin
     id 6 
     name rhipjoint
     direction -0.52849 -0.738415 0.418857   
     length 2.48223  
     axis 0 0 0  XYZ 
  end
  begin
     id 7 
     name rfemur
     direction -0.34202 -0.939693 0   
     length 7.15571   
     axis 0 0 -20   XYZ
    dof rx ry rz
    limits (-160.0 20.0)
           (-70.0 70.0)
           (-70.0 60.0)
  end
  begin
     id 8 
     name rtibia
     direction -0.34202 -0.939693 0   
     length 7.81659   
     axis 0 0 -20   XYZ
    dof rx
    limits (-10.0 170.0)
 end
 begin
     id 9 
     name rfoot
     direction -0.0917348 -0.252039 0.963359   
     length 1.84382  
     axis -90 -7.62852e-016 -20   XYZ
    dof rx rz
    limits (-45.0 90.0)
           (-20.0 70.0)
  end
  begin
     id 10 
     name rtoes
     direction -1.53551e-011 -4.21879e-011 1   
     length 0.927771   
     axis -90 -7.62852e-016 -20   XYZ
    dof rx
    limits (-90.0 20.0)
  end
  begin
     id 11 
     name lowerback
     direction 0.00583058 0.999822 0.0179296   
     length 2.1429   
     axis 0 0 0   XYZ
    dof rx ry rz
    limits (-20.0 45.0)
           (-30.0 30.0)
           (-30.0 30.0)
  end
  begin
     id 12 
     name upperback
     direction -0.0137999 0.999752 -0.0175071   
     length 2.14252   
     axis 0 0 0   XYZ
    dof rx ry rz
    limits (-20.0 45.0)
           (-30.0 30.0)
           (-30.0 30.0)
  end
  begin
     id 13 
     name thorax
     direction -0.0158036 0.99955 -0.0254909   
     length 2.1383   
     axis 0 0 0   XYZ
    dof rx ry rz
    limits (-20.0 45.0)
           (-30.0 30.0)
           (-30.0 30.0)
  end
  begin
     id 14 
     name lowerneck
     direction -0.0101179 0.999403 -0.0330262   
     length 1.65808   
     axis 0 0 0   XYZ
    dof rx ry rz
    limits (-20.0 45.0)
           (-30.0 30.0)
           (-30.0 30.0)
  end
  begin
     id 15 
     name upperneck
     direction 0.0497734 0.995978 -0.074501   
     length 1.5897   
     axis 0 0 0   XYZ
    dof rx ry rz
    limits (-20.0 45.0)
           (-30.0 30.0)
           (-30.0 30.0)
  end
  begin
     id 16
     name head
     direction 0.0189524 0.999519 -0.0245438  
     length 1.74024  
     axis 0 0 0   XYZ
    dof rx ry rz
    limits (-20.0 45.0)
           (-30.0 30.0)
           (-30.0 30.0)
  end
  begin
     id 17 
     name lclavicle
     direction 0.945604 0.324422 0.0241537  
     length 3.59089  
     axis 0 0 0   XYZ
    dof ry rz
    limits (-20.0 10.0)
           (0.0 20.0)
  end
  begin
     id 18 
     name lhumerus
     direction 1 -4.48964e-011 -2.63524e-027   
     length 5.2391   
     axis 180 -30 -90   XYZ
    dof rx ry rz
    limits (-60.0 90.0)
           (-90.0 90.0)
           (-90.0 90.0)
  end
  begin
     id 19
     name lradius
     direction 1 -4.48969e-011 3.86978e-028   
     length 3.31467   
     axis 180 -30 -90   XYZ
    dof rx
    limits (-10.0 170.0)
  end
  begin
     id 20
     name lwrist
     direction 1 -4.48963e-011 7.20928e-028   
     length 1.65734   
     axis -5.52449e-016 90 90   XYZ
    dof ry
    limits (-180.0 0.0)
 end
  begin
     id 21 
     name lhand
     direction 1 -4.48964e-011 1.44186e-027   
     length 0.9659   
     axis -9.20027e-016 90 90   XYZ
    dof rx rz
    limits (-90.0 90.0)
           (-45.0 45.0)
  end
  begin
     id 22 
     name lfingers
     direction 1 -4.48965e-011 2.88371e-027   
     length 0.778733   
     axis -1.84005e-015 90 90   XYZ
    dof rx
    limits (0.0 90.0)
  end
  begin
     id 23
     name lthumb
     direction 0.707107 -6.34931e-011 0.707107   
     length 1.11811   
     axis -90 45 2.85299e-015   XYZ
    dof rx rz
    limits (-45.0 45.0)
           (-45.0 45.0)
  end
  begin
     id 24 
     name rclavicle
     direction -0.923762 0.370785 0.0958234   
     length 3.54196  
     axis 0 0 0   XYZ 
    dof ry rz
    limits (-10.0 20.0)
           (-20.0 0.0)
  end
  begin
     id 25 
     name rhumerus
     direction -1 -4.48966e-011 1.18702e-017  
     length 5.30252   
     axis 180 30 90   XYZ
    dof rx ry rz
    limits (-90.0 60.0)
           (-90.0 90.0)
           (-90.0 90.0)
  end
  begin
     id 26 
     name rradius
     direction -1 -4.48966e-011 4.46736e-027   
     length 3.67875   
     axis 180 30 90   XYZ
    dof rx
    limits (-10.0 170.0)
  end
  begin
     id 27 
     name rwrist
     direction -1 -4.48966e-011 7.20928e-028   
     length 1.83937   
     axis -5.52449e-016 -90 -90   XYZ
    dof ry
    limits (-180.0 0.0)
  end
  begin
     id 28
     name rhand
     direction -1 -4.48973e-011 1.44186e-027   
     length 0.594811   
     axis -9.20027e-016 -90 -90   XYZ
    dof rx rz
    limits (-90.0 90.0)
           (-45.0 45.0)
  end
  begin
     id 29
     name rfingers
     direction -1 -4.48963e-011 2.88371e-027   
     length 0.479552   
     axis -1.84005e-015 -90 -90   XYZ
    dof rx
    limits (0.0 90.0)
  end
  begin
     id 30
     name rthumb
     direction -0.707107 -6.34932e-011 0.707107   
     length 0.688544   
     axis -90 -45 -2.85299e-015   XYZ
    dof rx rz
    limits (-45.0 45.0)
           (-45.0 45.0)
  end
:hierarchy
  begin
    root lhipjoint rhipjoint lowerback
    lhipjoint lfemur
    lfemur ltibia
    ltibia lfoot
    lfoot ltoes
    rhipjoint rfemur
    rfemur rtibia
    rtibia rfoot
    rfoot rtoes
    lowerback upperback
    upperback thorax
    thorax lowerneck lclavicle rclavicle
    lowerneck upperneck
    upperneck head
    lclavicle lhumerus
    lhumerus lradius
    lradius lwrist
    lwrist lhand lthumb
    lhand lfingers
    rclavicle rhumerus
    rhumerus rradius
    rradius rwrist
    rwrist rhand rthumb
    rhand rfingers
  end

#!OML:ASF E:\acrobat2\Project_11_07_03\Capture day 1\Session 1\Acrobat.ASF
:FULLY-SPECIFIED
:DEGREES
246
root 7.01853 17.8889 -30.9888 10.1941 0.697465 2.86685
lowerback -1.50372 0.980252 -5.7886
upperback 1.71548 1.54844 -3.52016
thorax 2.56132 0.698602 -0.329274
lowerneck 1.6353 -3.04753 -1.37391
upperneck 2.58078 -4.18278 5.56497
head 0.682084 -2.07479 1.96037
rclavicle -1.49089e-014 6.36111e-014
rhumerus -40.734 -8.7179 -78.4071
rradius 27.1429
rwrist 5.75948
rhand 4.98907 -20.146
rfingers 7.12502
rthumb 30.3595 -47.6675
lclavicle -1.49089e-014 6.36111e-014
lhumerus -31.4602 -10.5703 83.8694
lradius 24.7096
lwrist 10.7716
lhand -6.32785 -10.1177
lfingers 7.12502
lthumb 19.5172 18.9227
rfemur -17.5289 -0.419772 14.3523
rtibia 33.5021
rfoot -28.3773 -8.82204
rtoes -8.15485
lfemur -6.00314 -1.02079 -22.0052
ltibia 11.0062
lfoot -11.9445 -15.9671
ltoes 27.7514
247
root 7.02666 17.8843 -30.9467 10.2946 0.631325 2.99553
lowerback -1.2543 0.942304 -5.92719
upperback 1.8298 1.48812 -3.57973
thorax 2.54001 0.665556 -0.319754
lowerneck 1.90256 -2.99159 -1.37395
upperneck 2.13329 -4.08783 5.58299
head 0.494027 -2.03818 1.97418
rclavicle -1.25234e-014 2.54444e-014
rhumerus -40.8211 -8.83245 -78.23
rradius 27.0667
rwrist 5.6117
rhand 4.72419 -19.9365
rfingers 7.12502
rthumb 30.1069 -47.5044
lclavicle -1.25234e-014 2.54444e-014
lhumerus -31.3158 -10.6966 83.7885
lradius 24.8264
lwrist 10.8301
lhand -6.38368 -10.1015
lfingers 7.12502
lthumb 19.4635 18.9443
rfemur -18.6579 -0.871786 14.2093
rtibia 35.1686
rfoot -28.3015 -8.93427
rtoes -8.21632
lfemur -5.85711 -0.998616 -22.2045
ltibia 10.8529
lfoot -12.0858 -16.088
ltoes 27.3973
248
root 7.03449 17.8812 -30.9015 10.3946 0.594485 3.07139
lowerback -1.01378 0.897309 -6.01023
upperback 1.95761 1.41764 -3.61397
thorax 2.53874 0.627596 -0.314698
lowerneck 2.14474 -2.94768 -1.38927
upperneck 1.71334 -4.01054 5.59891
head 0.320136 -2.00966 1.98981
rclavicle -3.37934e-015 -5.24792e-014
rhumerus -40.8977 -8.96127 -78.025
rradius 26.9746
rwrist 5.50021
rhand 4.39842 -19.7249
rfingers 7.12502
rthumb 29.796 -47.3489
lclavicle -3.37934e-015 -5.24792e-014
lhumerus -31.1253 -10.8121 83.7118
lradius 24.9325
lwrist 10.8804
lhand -6.46649 -10.0914
lfingers 7.12502
lthumb 19.3839 18.9625
rfemur -19.7629 -1.33177 14.1424
rtibia 36.7306
rfoot -28.1995 -9.02534
rtoes -8.12143
lfemur -5.68648 -0.979807 -22.3347
ltibia 10.6744
lfoot -12.2164 -16.2034
ltoes 26.975
249
root 7.04173 17.8792 -30.8535 10.5102 0.58538 3.09861
lowerback -0.789372 0.850621 -6.03496
upperback 2.08617 1.34459 -3.6351
thorax 2.5483 0.589101 -0.327953
lowerneck 2.37245 -2.89028 -1.38683
upperneck 1.30867 -3.91553 5.60248
head 0.15228 -1.97169 1.99836
rclavicle -6.55989e-015 -1.51076e-014
rhumerus -40.9873 -9.12427 -77.8008
rradius 26.8919
rwrist 5.40848
rhand 4.0561 -19.56
rfingers 7.12502
rthumb 29.4693 -47.2421
lclavicle -6.55989e-015 -1.51076e-014
lhumerus -30.9044 -10.935 83.6297
lradius 25.0404
lwrist 10.921
lhand -6.55844 -10.0661
lfingers 7.12502
lthumb 19.2955 18.9966
rfemur -20.8686 -1.77999 14.1472
rtibia 38.1874
rfoot -28.0759 -9.0615
rtoes -7.76868
lfemur -5.51927 -0.94613 -22.3969
ltibia 10.4812
lfoot -12.3156 -16.3206
ltoes 26.5318
250
root 7.04831 17.8779 -30.8033 10.6518 0.609303 3.0896
lowerback -0.588534 0.801642 -6.02161
upperback 2.21408 1.26947 -3.64169
thorax 2.57088 0.549927 -0.346733
lowerneck 2.5803 -2.83648 -1.36155
upperneck 0.904134 -3.82479 5.59026
head -0.0127328 -1.93538 1.99778
rclavicle -1.0138e-014 2.38542e-015
rhumerus -41.0861 -9.31137 -77.5571
rradius 26.8296
rwrist 5.29004
rhand 3.77459 -19.4909
rfingers 7.12502
rthumb 29.2005 -47.22
lclavicle -1.0138e-014 2.38542e-015
lhumerus -30.6459 -11.0623 83.5488
lradius 25.149
lwrist 10.9536
lhand -6.65587 -10.044
lfingers 7.12502
lthumb 19.2018 19.028
rfemur -21.9932 -2.21045 14.2088
rtibia 39.5276
rfoot -27.9263 -9.03241
rtoes -7.1987
lfemur -5.37779 -0.900153 -22.4041
ltibia 10.2858
lfoot -12.3815 -16.4462
ltoes 26.1052
251
root 7.05396 17.8771 -30.7516 10.8337 0.665283 3.05859
lowerback -0.4194 0.746613 -5.99155
upperback 2.33739 1.18827 -3.63182
thorax 2.60665 0.507687 -0.357291
lowerneck 2.73637 -2.78752 -1.31969
upperneck 0.518819 -3.74103 5.55855
head -0.163425 -1.90137 1.98715
rclavicle 1.13307e-014 1.27222e-014
rhumerus -41.183 -9.50078 -77.2973
rradius 26.775
rwrist 5.13317
rhand 3.64431 -19.5464
rfingers 7.12502
rthumb 29.0761 -47.297
lclavicle 1.13307e-014 1.27222e-014
lhumerus -30.3523 -11.1899 83.4789
lradius 25.2647
lwrist 11.0021
lhand -6.76297 -10.0244
lfingers 7.12502
lthumb 19.0988 19.0578
rfemur -23.1627 -2.60943 14.3097
rtibia 40.747
rfoot -27.7428 -8.9362
rtoes -6.52729
lfemur -5.28693 -0.850934 -22.3719
ltibia 10.1003
lfoot -12.4148 -16.585
ltoes 25.747
252
root 7.05853 17.8763 -30.6982 11.0609 0.748968 3.01152
lowerback -0.277927 0.685449 -5.95565
upperback 2.44638 1.10002 -3.60333
thorax 2.64306 0.462035 -0.351527
lowerneck 2.84355 -2.7588 -1.27204
upperneck 0.165508 -3.68586 5.50501
head -0.295329 -1.88027 1.96756
rclavicle -2.38542e-015 -5.56597e-015
rhumerus -41.2948 -9.67357 -77.02
rradius 26.7236
rwrist 4.95688
rhand 3.60564 -19.6431
rfingers 7.12502
rthumb 29.0391 -47.4001
lclavicle -2.38542e-015 -5.56597e-015
lhumerus -30.0389 -11.3093 83.4267
lradius 25.3934
lwrist 11.0631
lhand -6.86414 -9.99299
lfingers 7.12502
lthumb 19.0015 19.0989
rfemur -24.3862 -2.96361 14.4417
rtibia 41.8491
rfoot -27.5209 -8.77856
rtoes -5.91705
lfemur -5.25897 -0.806928 -22.3064
ltibia 9.93434
lfoot -12.4206 -16.7456
ltoes 25.5184
253
root 7.06238 17.8755 -30.643 11.3256 0.853706 2.95924
lowerback -0.167921 0.625709 -5.9165
upperback 2.54137 1.01543 -3.56713
thorax 2.68244 0.418324 -0.339022
lowerneck 2.93514 -2.74579 -1.20712
upperneck -0.152545 -3.65296 5.43415
head -0.413413 -1.86936 1.93903
rclavicle 2.98177e-015 -3.65764e-014
rhumerus -41.4406 -9.83713 -76.732
rradius 26.6738
rwrist 4.77299
rhand 3.70935 -19.8544
rfingers 7.12502
rthumb 29.1382 -47.5943
lclavicle 2.98177e-015 -3.65764e-014
lhumerus -29.7219 -11.4638 83.3969
lradius 25.5514
lwrist 11.1435
lhand -6.95721 -9.94385
lfingers 7.12502
lthumb 18.912 19.1568
rfemur -25.6459 -3.28268 14.5887
rtibia 42.8223
rfoot -27.2496 -8.56436
rtoes -5.55269
lfemur -5.28151 -0.7827 -22.2265
ltibia 9.78649
lfoot -12.4184 -16.9248
ltoes 25.4337
254
root 7.06577 17.8742 -30.5856 11.6177 0.975007 2.90902
lowerback -0.0744435 0.555861 -5.89023
upperback 2.6131 0.9172 -3.51432
thorax 2.70708 0.367935 -0.302273
lowerneck 3.05881 -2.75794 -1.1615
upperneck -0.463746 -3.65474 5.36594
head -0.533304 -1.87602 1.91595
rclavicle 3.57812e-015 -5.1684e-014
rhumerus -41.6287 -9.92616 -76.4413
rradius 26.6213
rwrist 4.59089
rhand 3.82998 -20.0494
rfingers 7.12502
rthumb 29.2534 -47.7693
lclavicle 3.57812e-015 -5.1684e-014
lhumerus -29.4436 -11.6107 83.3952
lradius 25.7529
lwrist 11.2283
lhand -7.045 -9.89275
lfingers 7.12502
lthumb 18.8275 19.2161
rfemur -26.9228 -3.57493 14.7415
rtibia 43.6433
rfoot -26.9204 -8.31353
rtoes -5.62767
lfemur -5.3369 -0.786289 -22.1468
ltibia 9.65384
lfoot -12.442 -17.1009
ltoes 25.3591
255
root 7.0687 17.8723 -30.5263 11.9277 1.11512 2.85363
lowerback -0.00636798 0.478982 -5.85622
upperback 2.68049 0.81132 -3.45344
thorax 2.74188 0.313656 -0.261347
lowerneck 3.20964 -2.7687 -1.14325
upperneck -0.766202 -3.6558 5.33025
head -0.654399 -1.88268 1.90901
rclavicle 9.14409e-015 3.81667e-014
rhumerus -41.8302 -9.98015 -76.1565
rradius 26.554
rwrist 4.44206
rhand 3.95065 -20.2376
rfingers 7.12502
rthumb 29.3686 -47.9374
lclavicle 9.14409e-015 3.81667e-014
lhumerus -29.1753 -11.7636 83.403
lradius 25.9921
lwrist 11.306
lhand -7.12251 -9.8588
lfingers 7.12502
lthumb 18.753 19.2573
rfemur -28.2031 -3.83875 14.9087
rtibia 44.3023
rfoot -26.5457 -8.03837
rtoes -6.1215
lfemur -5.41592 -0.817603 -22.0585
ltibia 9.54349
lfoot -12.5204 -17.2557
ltoes 25.1615
